<?xml version="1.0" standalone="no"?>
<!DOCTYPE svg PUBLIC "-//W3C//DTD SVG 20010904//EN"
 "http://www.w3.org/TR/2001/REC-SVG-20010904/DTD/svg10.dtd">
<svg version="1.0" xmlns="http://www.w3.org/2000/svg"
 width="180.000000pt" height="180.000000pt" viewBox="0 0 180.000000 180.000000"
 preserveAspectRatio="xMidYMid meet">

<g transform="translate(0.000000,180.000000) scale(0.100000,-0.100000)"
fill="#000000" stroke="none">
<path d="M0 900 l0 -900 900 0 900 0 0 900 0 900 -900 0 -900 0 0 -900z m1219
666 c23 -21 26 -59 12 -134 -15 -74 -18 -76 -213 -77 -305 -3 -315 -4 -332
-21 -22 -22 -23 -455 -1 -494 8 -14 14 -28 15 -32 0 -9 -53 -35 -90 -43 -16
-4 -30 -13 -30 -21 0 -8 -4 -14 -8 -14 -5 0 -29 -14 -55 -31 -37 -24 -50 -28
-65 -20 -37 20 -42 63 -42 361 0 236 3 293 15 316 8 16 15 39 15 51 0 54 130
163 209 174 26 4 159 6 297 5 233 -1 254 -2 273 -20z m248 -578 c16 -18 18
-43 21 -252 4 -331 -8 -379 -120 -475 -21 -18 -56 -38 -76 -43 -59 -15 -556
-21 -632 -7 -116 21 -209 103 -230 205 -15 73 -8 103 29 110 16 3 38 19 50 35
19 25 28 29 71 29 63 0 90 -23 90 -78 0 -69 5 -70 270 -73 129 -2 245 0 258 5
34 11 42 44 42 171 0 170 7 163 -147 167 -105 2 -133 6 -156 22 -18 12 -24 22
-19 30 5 6 12 42 15 80 4 38 11 74 17 80 12 12 263 23 408 18 76 -3 93 -7 109
-24z m-1207 -557 c0 -17 -18 -21 -24 -6 -3 9 0 15 9 15 8 0 15 -4 15 -9z"/>
</g>
</svg>
